<?xml version="1.0" standalone="no"?>
<!DOCTYPE svg PUBLIC "-//W3C//DTD SVG 20010904//EN"
 "http://www.w3.org/TR/2001/REC-SVG-20010904/DTD/svg10.dtd">
<svg version="1.0" xmlns="http://www.w3.org/2000/svg"
 width="500.000000pt" height="500.000000pt" viewBox="0 0 500.000000 500.000000"
 preserveAspectRatio="xMidYMid meet">

<g transform="translate(0.000000,500.000000) scale(0.100000,-0.100000)"
fill="#000000" stroke="none">
<path d="M2664 4426 c-48 -21 -59 -75 -25 -117 14 -18 29 -24 61 -24 49 0 80
29 80 76 0 28 -30 69 -49 69 -5 0 -15 2 -23 5 -7 2 -27 -2 -44 -9z m66 -41 c7
-8 10 -25 6 -40 -5 -20 -13 -25 -36 -25 -23 0 -31 5 -36 25 -7 29 10 55 36 55
10 0 23 -7 30 -15z"/>
<path d="M2402 4267 c-40 -43 -17 -66 29 -29 14 12 20 25 16 35 -9 23 -19 21
-45 -6z"/>
<path d="M2270 4272 c0 -12 44 -52 58 -52 18 0 14 25 -6 43 -19 18 -52 23 -52
9z"/>
<path d="M2297 4162 c-20 -22 -22 -52 -4 -52 19 0 47 33 47 53 0 22 -23 22
-43 -1z"/>
<path d="M2386 4171 c-9 -14 4 -40 25 -52 28 -14 41 -2 28 24 -18 34 -42 46
-53 28z"/>
<path d="M1680 4087 c-623 -312 -1020 -947 -1020 -1630 0 -226 53 -548 85
-516 2 3 -7 58 -20 123 -142 667 101 1353 629 1780 116 94 203 149 344 220
101 51 135 76 100 76 -7 0 -60 -24 -118 -53z"/>
<path d="M3191 4128 c0 -7 57 -41 127 -76 159 -79 285 -168 425 -302 225 -216
374 -450 472 -743 101 -301 120 -633 56 -941 -11 -50 -23 -99 -26 -108 -5 -12
-2 -18 8 -18 17 0 48 118 67 255 15 114 13 392 -5 507 -91 602 -463 1116
-1000 1386 -100 49 -125 58 -124 40z"/>
<path d="M2913 3905 l-112 -115 -441 0 c-383 0 -441 -2 -446 -15 -7 -18 1 -27
288 -332 l218 -233 0 -297 c0 -164 -4 -303 -8 -310 -5 -9 -50 -13 -142 -15
l-135 -3 -3 -49 c-2 -27 -1 -60 3 -73 l5 -23 365 0 c361 0 364 0 376 21 7 14
9 41 4 75 l-6 54 -140 0 -139 0 0 313 0 313 176 194 c97 107 208 227 245 266
38 40 69 79 69 88 0 25 -38 34 -127 28 -46 -2 -83 -1 -83 4 0 5 41 50 90 99
87 87 109 125 73 125 -10 0 -68 -52 -130 -115z m-170 -168 c-4 -7 -36 -38 -70
-70 -55 -53 -64 -57 -84 -47 -13 7 -47 11 -84 8 -49 -3 -70 -10 -98 -31 -34
-26 -41 -27 -149 -27 l-114 0 -77 84 c-42 47 -77 87 -77 90 0 3 171 6 380 6
305 0 379 -3 373 -13z m247 -24 c-19 -21 -55 -59 -80 -85 l-44 -48 -105 0
-106 0 85 85 85 85 99 0 100 0 -34 -37z m-416 -127 c100 -42 99 -201 -1 -243
-84 -34 -169 13 -188 106 l-7 34 30 -22 c17 -11 38 -21 47 -21 21 0 57 19 72
39 18 23 16 81 -4 103 -15 17 -15 18 1 18 9 0 32 -6 50 -14z m-79 -55 c0 -60
-65 -70 -73 -12 -6 39 5 53 40 49 30 -3 33 -6 33 -37z m335 11 c0 -4 -54 -66
-121 -137 -118 -126 -123 -130 -173 -138 -64 -10 -108 -2 -131 23 -26 29 -10
43 28 23 70 -36 174 -11 224 54 20 26 27 47 27 86 1 29 -3 62 -7 75 -8 22 -7
22 72 22 45 0 81 -3 81 -8z m-478 -56 c-2 -30 1 -69 7 -87 26 -74 -18 -46
-131 84 l-50 57 89 0 90 0 -5 -54z m198 -605 l0 -328 31 -7 c17 -3 83 -6 145
-6 l114 0 0 -25 0 -25 -330 0 -330 0 0 25 0 25 140 0 140 0 1 133 c0 72 0 223
-1 335 l-2 202 46 0 46 0 0 -329z"/>
<path d="M2500 3983 c-26 -33 -21 -79 11 -105 48 -40 129 -5 129 56 0 72 -96
105 -140 49z m88 -15 c24 -24 8 -78 -24 -78 -17 0 -44 28 -44 45 0 17 27 45
44 45 6 0 17 -5 24 -12z"/>
<path d="M1370 3005 l0 -75 45 0 c25 0 45 5 45 10 0 6 -16 10 -35 10 -31 0
-35 3 -35 25 0 21 5 25 31 25 17 0 28 4 24 10 -3 6 -17 10 -31 10 -19 0 -24 5
-24 24 0 21 5 25 38 29 34 3 33 4 -10 5 l-48 2 0 -75z"/>
<path d="M1522 3068 c-22 -22 -13 -48 23 -65 45 -21 43 -48 -3 -48 -38 0 -37
-19 2 -23 34 -4 56 13 56 45 0 18 -9 28 -36 39 -47 20 -44 50 5 46 20 -1 30 2
26 8 -9 14 -58 13 -73 -2z"/>
<path d="M1660 3071 c23 -6 25 -12 28 -74 4 -88 22 -87 22 2 0 68 1 70 28 74
15 2 -2 4 -38 5 -41 0 -56 -3 -40 -7z"/>
<path d="M3206 3064 c-10 -26 -7 -28 14 -9 10 9 26 15 35 12 26 -11 16 -46
-26 -92 l-42 -45 52 0 c28 0 51 5 51 10 0 6 -14 10 -31 10 l-31 0 31 35 c17
20 31 42 31 50 0 32 -13 45 -45 45 -21 0 -35 -6 -39 -16z"/>
<path d="M3343 3068 c-35 -45 -14 -138 31 -138 13 0 32 7 40 16 18 18 21 85 6
115 -12 22 -62 26 -77 7z m55 -10 c20 -20 15 -96 -7 -107 -26 -15 -46 11 -46
61 0 49 27 72 53 46z"/>
<path d="M3476 3064 c-10 -26 -7 -28 14 -9 10 9 26 15 35 12 26 -11 16 -46
-26 -92 l-42 -45 52 0 c28 0 51 5 51 10 0 6 -14 10 -31 10 l-31 0 31 35 c17
20 31 42 31 50 0 32 -13 45 -45 45 -21 0 -35 -6 -39 -16z"/>
<path d="M3610 3065 c-7 -8 -10 -18 -6 -22 3 -4 12 2 20 12 8 11 20 16 30 12
20 -8 21 -47 1 -47 -22 0 -18 -17 5 -23 25 -6 26 -33 2 -46 -14 -7 -25 -6 -40
5 -23 16 -30 6 -10 -14 29 -29 97 2 82 37 -4 9 -7 34 -8 56 -1 37 -3 40 -32
43 -19 2 -36 -3 -44 -13z"/>
<path d="M2280 2231 c23 -6 25 -12 28 -74 4 -88 22 -87 22 2 0 68 1 70 28 74
15 2 -2 4 -38 5 -41 0 -56 -3 -40 -7z"/>
<path d="M2440 2165 c0 -43 4 -75 10 -75 6 0 10 16 10 35 0 34 1 35 40 35 39
0 40 -1 40 -35 0 -19 5 -35 10 -35 6 0 10 32 10 75 0 43 -4 75 -10 75 -5 0
-10 -16 -10 -35 0 -34 -1 -35 -40 -35 -39 0 -40 1 -40 35 0 19 -4 35 -10 35
-6 0 -10 -32 -10 -75z"/>
<path d="M2640 2165 l0 -75 50 0 c28 0 50 5 50 10 0 6 -16 10 -35 10 -31 0
-35 3 -35 25 0 20 5 25 25 25 14 0 25 5 25 10 0 6 -11 10 -25 10 -20 0 -25 5
-25 24 0 21 5 25 38 29 30 3 28 4 -15 5 l-53 2 0 -75z"/>
<path d="M2253 2051 c-125 -43 -171 -106 -139 -191 5 -11 -11 -23 -60 -44 -86
-38 -179 -126 -189 -178 -19 -101 65 -155 227 -146 119 6 204 49 266 131 28
39 30 106 4 130 -43 39 -152 9 -210 -57 -35 -41 -43 -94 -17 -116 19 -16 34
-5 17 12 -35 35 11 106 93 144 63 30 81 30 101 -1 35 -54 -38 -155 -144 -196
-80 -31 -209 -33 -249 -3 -39 29 -49 64 -35 113 16 52 92 127 160 159 51 23
54 23 99 8 77 -26 153 -17 153 19 0 27 -40 38 -111 31 -62 -5 -68 -4 -74 14
-15 47 29 106 110 147 56 29 142 36 169 14 31 -26 14 -81 -26 -81 -10 0 -18
-4 -18 -10 0 -19 41 -10 65 15 80 79 -47 136 -192 86z m37 -216 c0 -11 -11
-15 -39 -15 -22 0 -46 3 -55 6 -29 11 -5 24 45 24 37 0 49 -4 49 -15z"/>
<path d="M1040 2024 c-102 -28 -180 -95 -180 -157 0 -16 11 -35 30 -50 33 -28
32 -28 140 -52 96 -22 120 -37 120 -75 0 -82 -156 -170 -301 -170 -75 0 -102
32 -114 135 -4 33 -12 66 -17 73 -29 35 -88 -12 -88 -70 0 -45 36 -98 80 -119
19 -9 55 -26 80 -38 25 -11 54 -21 65 -21 15 1 13 4 -10 15 -29 13 -27 13 41
14 143 2 268 62 306 149 38 86 4 122 -147 152 -79 16 -105 25 -122 45 -26 30
-22 47 21 93 58 61 213 91 286 54 69 -34 60 -106 -14 -115 -29 -4 -28 -4 7 -5
66 -3 109 63 73 110 -35 46 -149 61 -256 32z m-340 -361 c7 -32 20 -73 31 -90
20 -36 15 -41 -15 -18 -34 26 -56 69 -56 111 0 40 6 54 21 54 4 0 13 -26 19
-57z"/>
<path d="M3208 1912 c-19 -20 -49 -57 -65 -82 -46 -69 -153 -257 -153 -269 0
-27 30 -6 73 49 43 54 164 157 174 146 2 -2 -9 -26 -26 -52 -40 -67 -47 -98
-27 -129 22 -33 35 -32 87 9 l43 35 11 -32 c8 -26 16 -33 42 -35 27 -3 41 5
82 43 28 26 60 67 71 91 12 24 25 44 29 44 4 0 16 6 26 14 18 13 18 14 -7 9
-23 -4 -27 -1 -30 22 -9 77 -79 49 -169 -66 -64 -84 -115 -129 -144 -129 -29
0 -11 54 45 131 77 106 49 120 -76 37 -112 -75 -108 -73 -99 -57 4 8 43 62 87
120 43 58 78 111 78 117 0 25 -19 19 -52 -16z m302 -204 c0 -24 -114 -142
-132 -136 -37 12 -13 80 52 149 39 41 40 42 60 24 11 -10 20 -27 20 -37z"/>
<path d="M1373 1855 c-7 -19 13 -36 37 -32 8 1 15 11 15 22 0 26 -42 34 -52
10z"/>
<path d="M3682 1858 c-5 -7 -17 -31 -26 -53 -10 -22 -38 -66 -63 -98 -25 -32
-43 -60 -40 -63 2 -3 28 25 57 61 45 57 54 64 69 53 9 -7 17 -13 18 -13 2 -1
-6 -19 -17 -40 -69 -135 -3 -203 118 -121 l51 34 3 -31 c6 -60 55 -61 132 -2
39 29 46 32 46 16 0 -25 31 -51 62 -51 15 0 43 16 69 39 l44 38 2 -25 c0 -14
9 -32 19 -39 32 -23 81 4 147 84 58 70 44 66 -31 -9 -38 -37 -76 -68 -85 -68
-34 0 -17 58 45 148 30 43 31 72 4 72 -7 0 -16 7 -20 15 -17 45 -116 -5 -209
-106 -112 -122 -197 -174 -197 -118 0 27 14 52 67 121 44 58 50 72 34 82 -19
12 -42 -8 -86 -75 -57 -87 -126 -140 -175 -137 -29 3 -35 7 -38 29 -3 22 18
60 93 164 15 22 -3 30 -40 16 -49 -17 -60 -6 -35 35 20 31 20 54 1 54 -5 0
-13 -6 -19 -12z m602 -76 c6 -10 -106 -161 -142 -188 -66 -52 -101 -23 -59 49
47 80 180 172 201 139z"/>
<path d="M4005 1860 c-10 -17 20 -44 40 -36 9 3 15 14 13 23 -4 21 -43 30 -53
13z"/>
<path d="M2463 1723 c-40 -43 -73 -82 -73 -87 0 -5 9 -1 20 9 20 18 20 18 4
-20 -12 -29 -13 -44 -5 -62 18 -40 58 -27 127 39 l41 39 -1 -43 c-1 -40 1 -43
28 -46 17 -2 40 4 55 15 48 36 51 34 26 -15 -26 -53 -32 -101 -15 -133 15 -28
32 -24 24 6 -8 34 2 83 26 123 19 31 21 32 42 17 53 -36 169 1 232 75 69 82
30 170 -63 141 -24 -7 -39 -7 -53 2 -17 11 -24 6 -59 -33 -139 -155 -176 -187
-204 -177 -22 9 -2 53 60 132 30 38 55 72 55 77 0 5 -7 11 -16 15 -18 6 -58
-32 -157 -150 -50 -59 -103 -95 -118 -80 -12 12 22 81 79 154 48 63 54 79 28
79 -6 0 -44 -35 -83 -77z m512 34 c42 -31 -16 -127 -102 -171 -51 -25 -113
-15 -113 19 0 24 120 144 154 154 42 13 40 13 61 -2z"/>
<path d="M1311 1772 c-11 -9 -36 -44 -56 -76 -38 -64 -46 -124 -20 -146 21
-17 71 -3 111 32 19 17 34 28 34 25 0 -3 -11 -28 -25 -55 -26 -53 -32 -101
-15 -133 15 -28 32 -24 24 6 -8 34 2 83 26 123 19 31 21 32 42 17 53 -36 169
1 232 75 69 82 30 170 -63 141 -24 -7 -39 -7 -53 2 -17 11 -24 6 -60 -33 -114
-126 -137 -150 -169 -169 -94 -57 -94 3 0 128 23 30 41 58 41 62 0 16 -30 17
-49 1z m334 -15 c42 -31 -16 -127 -102 -171 -51 -25 -113 -15 -113 19 0 24
120 144 154 154 42 13 40 13 61 -2z"/>
<path d="M1765 1230 c-63 -25 -81 -114 -31 -157 31 -27 82 -30 112 -8 21 16
17 18 -40 19 -33 1 -43 6 -55 29 -14 24 -14 30 -1 55 13 22 23 27 55 28 36 0
57 16 38 27 -19 11 -60 15 -78 7z"/>
<path d="M1983 1228 c-36 -9 -63 -50 -63 -93 0 -40 50 -85 95 -85 45 0 95 45
95 85 0 21 -25 85 -33 85 -1 0 -16 4 -32 8 -17 5 -45 5 -62 0z m77 -47 c34
-65 -30 -132 -82 -84 -20 18 -23 54 -8 84 7 13 21 19 45 19 24 0 38 -6 45 -19z"/>
<path d="M2233 1225 c-90 -39 -63 -175 35 -175 36 0 62 14 62 32 0 5 -17 5
-38 2 -48 -7 -72 13 -72 60 0 43 19 59 66 54 47 -4 56 16 13 31 -18 6 -32 11
-33 11 -1 -1 -15 -7 -33 -15z"/>
<path d="M2410 1140 c0 -73 3 -90 15 -90 11 0 15 11 15 40 0 27 4 40 14 40 7
0 25 -18 40 -40 16 -24 34 -40 46 -40 26 0 26 1 -12 55 l-32 45 33 40 32 40
-24 0 c-17 0 -32 -11 -48 -35 -31 -45 -49 -45 -49 0 0 24 -5 35 -15 35 -12 0
-15 -17 -15 -90z"/>
<path d="M2620 1215 c0 -9 9 -15 25 -15 24 0 25 -2 25 -75 0 -68 2 -75 20 -75
18 0 20 7 20 75 0 73 1 75 25 75 16 0 25 6 25 15 0 12 -14 15 -70 15 -56 0
-70 -3 -70 -15z"/>
<path d="M2856 1153 c-16 -43 -31 -84 -34 -90 -7 -21 26 -15 38 7 8 15 21 20
49 20 30 0 40 -4 44 -20 3 -12 14 -20 25 -20 19 0 18 5 -16 90 -29 73 -39 90
-56 90 -17 0 -27 -15 -50 -77z m68 -10 c6 -20 4 -23 -18 -23 -30 0 -29 -2 -15
40 12 34 19 30 33 -17z"/>
<path d="M3060 1140 c0 -83 1 -90 20 -90 19 0 20 7 20 90 0 83 -1 90 -20 90
-19 0 -20 -7 -20 -90z"/>
<path d="M3190 1140 l0 -90 55 0 c42 0 55 3 55 15 0 10 -11 15 -35 15 l-35 0
0 75 c0 68 -2 75 -20 75 -19 0 -20 -7 -20 -90z"/>
<path d="M1196 1139 c116 -122 303 -253 499 -349 214 -105 380 -152 630 -180
251 -28 565 13 808 106 251 96 493 250 652 413 63 66 18 48 -65 -25 -264 -235
-537 -372 -885 -445 -96 -20 -139 -23 -335 -24 -259 0 -356 15 -578 87 -245
80 -533 255 -686 417 -17 17 -39 31 -50 31 -18 0 -17 -3 10 -31z"/>
</g>
</svg>
